<svg id="Layer_1" data-name="Layer 1" xmlns="http://www.w3.org/2000/svg" viewBox="0 0 519.86 519.86"><defs><style>.cls-1{fill:#611bea;}.cls-2{fill:#db4646;}.cls-3{fill:#fff;}.cls-4{fill:#e1eae5;stroke:#fff;stroke-miterlimit:10;fill-rule:evenodd;}</style></defs><title>icon</title><polygon class="cls-1" points="130.25 493.49 0.58 268.89 130.25 44.28 389.6 44.28 519.28 268.89 389.6 493.49 130.25 493.49"/><path d="M389.32,44.78,518.7,268.89,389.32,493H130.54L1.15,268.89,130.54,44.78H389.32m.57-1H130L0,268.89,130,494H389.89l130-225.1-130-225.11Z"/><polygon class="cls-2" points="36.55 389.6 36.55 130.25 261.16 0.58 485.76 130.25 485.76 389.6 261.16 519.28 36.55 389.6"/><path class="cls-3" d="M261.16,1.15l224.1,129.39V389.32L261.16,518.7,37.05,389.32V130.54L261.16,1.15m0-1.15L36.05,130V389.89l225.11,130,225.1-130V130L261.16,0Z"/><path class="cls-4" d="M190.84,167.94c-112.8,112.8,0,136.21,0,136.21s-9.22-165.3,156.07,0-42.56-151.82-42.56-151.82S280.23,78.55,190.84,167.94Z"/></svg>